<svg xmlns="http://www.w3.org/2000/svg" width="18.111" height="18.137" viewBox="0 0 18.111 18.137">
  <g id="Group" transform="translate(1.073 -0.549)">
    <g id="Group-2" data-name="Group" transform="translate(-1.073 0.549)">
      <path id="Vector" d="M14.321,10.186a1.784,1.784,0,0,0-1.294-.593,1.845,1.845,0,0,0-1.309.589l-1.21,1.206c-.1-.054-.2-.1-.295-.153-.138-.069-.268-.134-.379-.2a13.147,13.147,0,0,1-3.15-2.871A7.756,7.756,0,0,1,5.65,6.53c.314-.287.6-.586.888-.873.107-.107.214-.218.322-.325a1.756,1.756,0,0,0,0-2.649L5.815,1.638C5.7,1.52,5.574,1.4,5.459,1.275c-.23-.237-.471-.482-.72-.712A1.812,1.812,0,0,0,3.457,0a1.875,1.875,0,0,0-1.3.563L2.148.57.846,1.883a2.8,2.8,0,0,0-.831,1.78A6.71,6.71,0,0,0,.506,6.5a16.482,16.482,0,0,0,2.928,4.884,18.014,18.014,0,0,0,6,4.7,9.346,9.346,0,0,0,3.369,1c.08,0,.165.008.241.008a2.884,2.884,0,0,0,2.209-.949c0-.008.011-.011.015-.019a8.7,8.7,0,0,1,.67-.693c.165-.157.333-.322.5-.494a1.91,1.91,0,0,0,.578-1.324,1.84,1.84,0,0,0-.589-1.313Zm1.37,4.031s0,0,0,0c-.149.161-.3.306-.467.467a10.065,10.065,0,0,0-.739.766,1.845,1.845,0,0,1-1.439.609c-.057,0-.119,0-.176,0a8.3,8.3,0,0,1-2.986-.9,17,17,0,0,1-5.65-4.425,15.541,15.541,0,0,1-2.756-4.59,5.466,5.466,0,0,1-.429-2.4,1.757,1.757,0,0,1,.528-1.137L2.883,1.305a.87.87,0,0,1,.582-.272.819.819,0,0,1,.559.268l.011.011c.234.218.456.444.689.685.119.122.241.245.364.371L6.133,3.414a.731.731,0,0,1,0,1.187c-.111.111-.218.222-.329.329-.322.329-.628.635-.961.934-.008.008-.015.011-.019.019a.781.781,0,0,0-.2.869l.011.034A8.39,8.39,0,0,0,5.872,8.8l0,0a14.05,14.05,0,0,0,3.4,3.093,5.226,5.226,0,0,0,.471.256c.138.069.268.134.379.2.015.008.031.019.046.027a.83.83,0,0,0,.379.1.818.818,0,0,0,.582-.264l1.309-1.309a.866.866,0,0,1,.578-.287.78.78,0,0,1,.551.279l.008.008,2.109,2.109A.757.757,0,0,1,15.691,14.217Z" transform="translate(0 1.049)" fill="#fff"/>
      <path id="Vector-2" data-name="Vector" d="M.425,1.025A4.854,4.854,0,0,1,3.067,2.4a4.879,4.879,0,0,1,1.37,2.641.514.514,0,0,0,.509.429.683.683,0,0,0,.088-.008.517.517,0,0,0,.425-.6A5.9,5.9,0,0,0,3.8,1.664,5.9,5.9,0,0,0,.605.007a.519.519,0,0,0-.6.421A.511.511,0,0,0,.425,1.025Z" transform="translate(9.363 3.289)" fill="#fff"/>
      <path id="Vector-3" data-name="Vector" d="M8.593,8A9.713,9.713,0,0,0,5.864,2.737,9.713,9.713,0,0,0,.6.008.516.516,0,1,0,.432,1.026a8.7,8.7,0,0,1,4.7,2.438,8.672,8.672,0,0,1,2.438,4.7.514.514,0,0,0,.509.429.683.683,0,0,0,.088-.008A.507.507,0,0,0,8.593,8Z" transform="translate(9.51 0)" fill="#fff"/>
    </g>
  </g>
</svg>
